#!OML:ASF E:\acrobat2\Project_11_07_03\Capture day 1\Session 1\Acrobat.ASF
:FULLY-SPECIFIED
:DEGREES
655
root 12.2748 22.1073 21.6299 360.952 -5.03703 -1.32072
lowerback -5.30002 -0.247556 1.69917
upperback -6.17366 -0.40964 -1.07011
thorax -3.42245 -0.30205 -2.06509
lowerneck 3.96586 -1.57949 -2.45435
upperneck -0.902149 -2.13864 4.69643
head -0.875247 -1.12387 1.93082
rclavicle 4.17448e-015 5.1684e-015
rhumerus 83.3383 -35.8837 -50.1901
rradius 46.8209
rwrist -17.3492
rhand -36.3454 -28.4329
rfingers 7.12502
rthumb -9.44305 -58.2014
lclavicle 4.17448e-015 5.1684e-015
lhumerus 79.6761 31.8562 34.2467
lradius 40.5808
lwrist 16.2299
lhand -50.0021 -63.922
lfingers 7.12502
lthumb -22.5911 -35.2239
rfemur 13.8155 7.95422 17.28
rtibia -1.38862
rfoot -14.235 -25.0527
rtoes 25.1954
lfemur 6.53901 -1.95007 -10.8408
ltibia 1.39083
lfoot -6.99758 11.364
ltoes 5.35592
656
root 12.273 22.0392 21.695 361.246 -5.14688 -1.31062
lowerback -5.17184 -0.335249 1.66607
upperback -6.28764 -0.517888 -0.805318
thorax -3.61509 -0.351719 -1.77383
lowerneck 4.82797 -1.3485 -3.301
upperneck -1.21463 -1.8773 4.89995
head -1.12927 -1.00401 2.1623
rclavicle 2.24627e-014 7.55382e-015
rhumerus 83.3191 -35.2228 -50.0394
rradius 47.195
rwrist -17.5382
rhand -37.4252 -28.1074
rfingers 7.12502
rthumb -10.4848 -57.8259
lclavicle 2.24627e-014 7.55382e-015
lhumerus 78.3768 32.0448 33.3122
lradius 40.8664
lwrist 16.0467
lhand -50.131 -60.5382
lfingers 7.12502
lthumb -22.7149 -31.8552
rfemur 13.7218 7.81911 17.1403
rtibia -1.45128
rfoot -13.7575 -24.9702
rtoes 25.7048
lfemur 6.52684 -1.82931 -10.7914
ltibia 1.28666
lfoot -6.56424 11.3902
ltoes 5.42057
657
root 12.272 21.9815 21.759 361.544 -5.27441 -1.37273
lowerback -5.03732 -0.380909 1.73547
upperback -6.34164 -0.572318 -0.565254
thorax -3.74725 -0.377799 -1.56431
lowerneck 5.28816 -1.15598 -4.01968
upperneck -1.3673 -1.66801 5.07886
head -1.26567 -0.904209 2.35712
rclavicle -1.54555e-014 3.57812e-015
rhumerus 83.4602 -34.7728 -49.8355
rradius 47.2291
rwrist -17.5451
rhand -38.3587 -27.9778
rfingers 7.12502
rthumb -11.3853 -57.6488
lclavicle -1.54555e-014 3.57812e-015
lhumerus 77.3559 32.3499 32.4006
lradius 40.9378
lwrist 15.8645
lhand -50.2715 -57.037
lfingers 7.12502
lthumb -22.8497 -28.3706
rfemur 13.4775 7.54174 17.0243
rtibia -1.28457
rfoot -13.1419 -24.7824
rtoes 26.2059
lfemur 6.48633 -1.74877 -10.6814
ltibia 1.23016
lfoot -6.16328 11.4887
ltoes 5.15145
658
root 12.2718 21.9345 21.8217 361.835 -5.41011 -1.48177
lowerback -4.88414 -0.358131 1.88486
upperback -6.35663 -0.538721 -0.42173
thorax -3.84777 -0.364895 -1.49791
lowerneck 5.48332 -1.03536 -4.39127
upperneck -1.41666 -1.53263 5.21777
head -1.32189 -0.839199 2.47225
rclavicle 3.23025e-015 2.14687e-014
rhumerus 83.6091 -34.5307 -49.6604
rradius 46.9874
rwrist -17.2554
rhand -39.0159 -28.1355
rfingers 7.12502
rthumb -12.0189 -57.7704
lclavicle 3.23025e-015 2.14687e-014
lhumerus 76.7672 32.5926 31.6739
lradius 40.8053
lwrist 15.6354
lhand -50.4747 -53.6459
lfingers 7.12502
lthumb -23.0447 -25.0037
rfemur 13.1064 7.11557 16.9082
rtibia -0.917201
rfoot -12.3375 -24.5194
rtoes 26.409
lfemur 6.41846 -1.71765 -10.5429
ltibia 1.21727
lfoot -5.79949 11.6711
ltoes 4.71217
659
root 12.272 21.8984 21.8833 362.104 -5.54824 -1.61188
lowerback -4.71264 -0.316384 2.07269
upperback -6.30368 -0.481793 -0.354684
thorax -3.8878 -0.342665 -1.53206
lowerneck 5.36225 -0.946381 -4.4833
upperneck -1.38357 -1.41273 5.35874
head -1.2959 -0.779784 2.53117
rclavicle -5.86415e-015 4.77083e-015
rhumerus 83.909 -34.4975 -49.5521
rradius 46.4551
rwrist -16.8457
rhand -39.3141 -28.5427
rfingers 7.12502
rthumb -12.3065 -58.1606
lclavicle -5.86415e-015 4.77083e-015
lhumerus 76.5283 32.8484 31.1355
lradius 40.5229
lwrist 15.3599
lhand -50.608 -50.4096
lfingers 7.12502
lthumb -23.1725 -21.7835
rfemur 12.6415 6.54915 16.7701
rtibia -0.379429
rfoot -11.3283 -24.2046
rtoes 26.2039
lfemur 6.33945 -1.74779 -10.4053
ltibia 1.23199
lfoot -5.45923 11.9619
ltoes 4.19002
660
root 12.2719 21.8737 21.9445 362.338 -5.67967 -1.74307
lowerback -4.52389 -0.268842 2.25632
upperback -6.22559 -0.416722 -0.311284
thorax -3.91084 -0.316304 -1.58843
lowerneck 5.15895 -0.876643 -4.48539
upperneck -1.34477 -1.30955 5.51363
head -1.25297 -0.728356 2.57752
rclavicle 1.32192e-014 5.36719e-015
rhumerus 84.2862 -34.4743 -49.54
rradius 45.7566
rwrist -16.2952
rhand -39.2065 -29.0588
rfingers 7.12502
rthumb -12.2027 -58.6828
lclavicle 1.32192e-014 5.36719e-015
lhumerus 76.5782 33.031 30.9381
lradius 40.0934
lwrist 15.0001
lhand -50.5487 -47.5066
lfingers 7.12502
lthumb -23.1156 -18.8733
rfemur 12.1225 5.8749 16.6017
rtibia 0.293968
rfoot -10.1897 -23.8569
rtoes 25.7955
lfemur 6.26666 -1.83324 -10.2873
ltibia 1.27071
lfoot -5.1143 12.3517
ltoes 3.75166
661
root 12.2714 21.8608 22.0066 362.519 -5.78736 -1.85989
lowerback -4.31718 -0.239095 2.41249
upperback -6.12626 -0.374508 -0.288238
thorax -3.92246 -0.300278 -1.65087
lowerneck 4.89735 -0.822422 -4.3669
upperneck -1.2903 -1.21941 5.63571
head -1.19425 -0.682585 2.59005
rclavicle -2.08724e-015 1.25234e-014
rhumerus 84.7401 -34.432 -49.6424
rradius 44.9379
rwrist -15.7387
rhand -38.6934 -29.5931
rfingers 7.12502
rthumb -11.708 -59.2459
lclavicle -2.08724e-015 1.25234e-014
lhumerus 76.8727 33.1154 31.097
lradius 39.5612
lwrist 14.5072
lhand -50.3749 -45.1536
lfingers 7.12502
lthumb -22.9489 -16.4995
rfemur 11.5933 5.0932 16.3872
rtibia 1.07192
rfoot -9.01307 -23.4805
rtoes 25.5034
lfemur 6.21944 -1.95789 -10.2044
ltibia 1.34175
lfoot -4.75105 12.8051
ltoes 3.56729
662
root 12.2703 21.8603 22.0703 362.639 -5.86355 -1.97402
lowerback -4.10029 -0.198477 2.55902
upperback -5.99614 -0.317255 -0.275521
thorax -3.90669 -0.275748 -1.71873
lowerneck 4.5611 -0.818825 -4.20127
upperneck -1.20627 -1.19475 5.73066
head -1.10945 -0.667904 2.58507
rclavicle 1.04362e-014 2.5842e-015
rhumerus 85.218 -34.3607 -49.8587
rradius 44.0816
rwrist -15.179
rhand -37.8686 -30.0721
rfingers 7.12502
rthumb -10.9125 -59.7686
lclavicle 1.04362e-014 2.5842e-015
lhumerus 77.4037 33.1445 31.5533
lradius 38.9673
lwrist 14.0399
lhand -50.0896 -43.3273
lfingers 7.12502
lthumb -22.6751 -14.6395
rfemur 11.0723 4.20662 16.1422
rtibia 1.94971
rfoot -7.83931 -23.0916
rtoes 25.4441
lfemur 6.20446 -2.1101 -10.1354
ltibia 1.46137
lfoot -4.36816 13.2985
ltoes 3.67646
663
root 12.2685 21.8721 22.1356 362.703 -5.90453 -2.10744
lowerback -3.88065 -0.133512 2.72516
upperback -5.8358 -0.2272 -0.258297
thorax -3.85918 -0.234521 -1.7931
lowerneck 4.1422 -0.88101 -4.05179
upperneck -1.06296 -1.26098 5.80333
head -0.986557 -0.696363 2.57584
rclavicle 1.23246e-014 1.61016e-014
rhumerus 85.7074 -34.2548 -50.1765
rradius 43.2349
rwrist -14.6718
rhand -36.8669 -30.5098
rfingers 7.12502
rthumb -9.94626 -60.2548
lclavicle 1.23246e-014 1.61016e-014
lhumerus 78.1608 33.131 32.2832
lradius 38.3163
lwrist 13.6375
lhand -49.682 -42.0111
lfingers 7.12502
lthumb -22.2838 -13.276
rfemur 10.5582 3.21516 15.8939
rtibia 2.9347
rfoot -6.64596 -22.7032
rtoes 25.4942
lfemur 6.21005 -2.26989 -10.0427
ltibia 1.64935
lfoot -3.95586 13.8047
ltoes 4.01615
664
root 12.2664 21.8964 22.2023 362.719 -5.90847 -2.27434
lowerback -3.65683 -0.0532323 2.92955
upperback -5.66467 -0.116065 -0.226971
thorax -3.80162 -0.183391 -1.87462
lowerneck 3.68416 -0.993598 -3.93694
upperneck -0.840527 -1.40063 5.8516
head -0.828292 -0.759587 2.56474
rclavicle -4.32357e-015 -1.2921e-014
rhumerus 86.171 -34.1191 -50.5476
rradius 42.4309
rwrist -14.3252
rhand -35.7746 -30.8744
rfingers 7.12502
rthumb -8.89227 -60.667
lclavicle -4.32357e-015 -1.2921e-014
lhumerus 79.0484 33.0872 33.1542
lradius 37.6125
lwrist 13.327
lhand -49.1751 -41.1284
lfingers 7.12502
lthumb -21.7972 -12.3359
rfemur 10.0441 2.11828 15.6572
rtibia 4.0344
rfoot -5.40406 -22.3087
rtoes 25.6162
lfemur 6.21994 -2.3986 -9.89679
ltibia 1.92197
lfoot -3.4911 14.2834
ltoes 4.44893
665
root 12.2638 21.933 22.2699 362.701 -5.88211 -2.48545
lowerback -3.42716 -0.0136154 3.16321
upperback -5.50922 -0.0577895 -0.174576
thorax -3.76662 -0.159598 -1.95119
lowerneck 3.28612 -1.09196 -3.77432
upperneck -0.564083 -1.5256 5.84024
head -0.665449 -0.815107 2.52479
rclavicle 1.22253e-014 1.47101e-014
rhumerus 86.6931 -33.9087 -50.9848
rradius 41.6096
rwrist -14.2226
rhand -34.775 -31.1577
rfingers 7.12502
rthumb -7.92764 -60.989
lclavicle 1.22253e-014 1.47101e-014
lhumerus 79.9293 32.997 34.059
lradius 36.8679
lwrist 12.9705
lhand -48.5878 -40.5593
lfingers 7.12502
lthumb -21.2331 -11.7022
rfemur 9.50943 0.945236 15.452
rtibia 5.26002
rfoot -4.09635 -21.9076
rtoes 25.8046
lfemur 6.2111 -2.45301 -9.66903
ltibia 2.29596
lfoot -2.9527 14.6968
ltoes 4.83204
